<?xml version="1.0" encoding="utf-8"?>
<!-- Generator: Adobe Illustrator 19.0.0, SVG Export Plug-In . SVG Version: 6.00 Build 0)  -->
<svg version="1.1" id="Layer_1" xmlns="http://www.w3.org/2000/svg" xmlns:xlink="http://www.w3.org/1999/xlink" x="0px" y="0px"
	 viewBox="0 0 1200 300" style="enable-background:new 0 0 1200 300;" xml:space="preserve">
<style type="text/css">
	.st0{fill:#FFFFFF;}
	.st1{fill:#29C1FC;}
	.st2{fill:#9C62F9;}
</style>
<g id="XMLID_2178_">
	<path id="XMLID_2185_" class="st0" d="M406.9,159.8v-6.9c0-19.9,6.7-32.2,23.1-32.2c13.8,0,20.3,8.6,20.3,22h26.5V138
		c0-23.1-15.1-41.7-47.5-41.7c-35.2,0-50.5,23.7-50.5,56.5v6.9c0,32.6,15.3,56.5,50.5,56.5c32.4,0,47.5-18.1,47.5-39.9v-4.5h-26.5
		c0,11.2-6,19.9-20.3,19.9C413.5,191.8,406.9,179.5,406.9,159.8z M544,216.4c35.8,0,51.8-24,51.8-56.5v-6.9
		c0-32.8-16-56.5-51.8-56.5c-35.8,0-51.8,23.7-51.8,56.5v6.9C492.2,192.4,508.2,216.4,544,216.4z M544,191.8
		c-16.4,0-23.7-12.3-23.7-31.9v-6.9c0-19.9,7.3-32.2,23.7-32.2s23.7,12.3,23.7,32.2v6.9C567.7,179.5,560.4,191.8,544,191.8z
		 M714,213.6v-78.3c0-20.7-10.1-38.9-35.2-38.9c-18.1,0-30,7.6-37.1,17.9l-2.6-15.1h-24.8l1.9,32.4v82h28.1v-79.6
		c3.2-5.4,10.6-13.2,23.7-13.2c12.7,0,18.1,8,18.1,19v73.8H714z M835.6,213.6v-78.3c0-20.7-10.1-38.9-35.2-38.9
		c-18.1,0-30,7.6-37.1,17.9l-2.6-15.1h-24.8l1.9,32.4v82h28.1v-79.6c3.2-5.4,10.6-13.2,23.7-13.2c12.7,0,18.1,8,18.1,19v73.8H835.6z
		 M958.3,166.7v-13.2c0-32.6-16-57.2-51.2-57.2c-35.4,0-52.4,24.6-52.4,57.2v5.6c0,32.6,16.6,57.2,53.5,57.2
		c32.8,0,50.1-18.1,50.1-38.6v-0.9h-26.5c0,8.6-8,17.7-23.3,17.7c-16,0-24.6-9.1-25.7-27.8H958.3z M906.5,118.2
		c15.3,0,22.7,9.7,23.5,27.8h-47.3C883.9,127.9,891.4,118.2,906.5,118.2z M970.4,99.2l31.1,55.9l-31.1,58.5h31.9l21.6-44l21.8,44
		h31.9l-31.1-58.5l31.1-55.9H1045l-20.9,41.2L1003,99.2H970.4z M1132.3,99.2V66.8h-28.1v32.4l-47.5,0v24.6l47.5,0v52.4
		c0,29.6,16.4,40.1,39.9,40.1c10.1,0,16-1.9,17.7-2.8v-23.3c-1.3,0.6-6.9,1.5-11,1.5c-11.7,0-18.6-3.2-18.6-18.6v-49.4h31.7V99.2
		H1132.3z"/>
	<path id="XMLID_1019_" class="st1" d="M174.9,98.4l-27.3-27.3l-16.4-16.4l0.2-0.2c-6.5-6.5-15.8-10.1-24.8-1.1
		c-7.9,7.9-5.3,16.6-0.6,22.5l-48.7,48.3c-20.1,20.5-12.2,41.4,1.8,55.4L99.4,220c3.6,3.6,17.6,18.3,28.8,6.8
		c6.5-6.5,5-16.5,1.4-20.5l-46.4-46c-8.3-8.3-4.3-15.8,4-23.7L126.7,97l24.8,24.8c8.6,8.6,19.4,11.9,28.4,2.9
		C188.9,115.7,183.5,107.1,174.9,98.4z"/>
	<path id="XMLID_1020_" class="st2" d="M281.4,117.5l-40.3-39.9c-3.6-3.6-17.6-18.3-28.8-6.8c-6.5,6.5-5,16.5-1.4,20.5l46.4,46
		c8.3,8.3,4.3,15.8-4,23.7l-39.6,39.6l-24.8-24.8c-8.6-8.6-19.4-11.9-28.4-2.9c-9,9-3.6,17.6,5,26.3l27.3,27.3l16.4,16.4l-0.2,0.2
		c6.5,6.5,15.8,10.4,24.8,1.4c8-8,5.2-16.8,0.4-22.7l48.9-48.9C303.7,152.4,295.8,131.5,281.4,117.5z"/>
</g>
</svg>
