<?xml version="1.0" encoding="utf-8"?>
<!-- Generator: Adobe Illustrator 19.0.0, SVG Export Plug-In . SVG Version: 6.00 Build 0)  -->
<svg version="1.1" id="Layer_1" xmlns="http://www.w3.org/2000/svg" xmlns:xlink="http://www.w3.org/1999/xlink" x="0px" y="0px"
	 viewBox="0 0 600 600" style="enable-background:new 0 0 600 600;" xml:space="preserve">
<style type="text/css">
	.st0{fill:url(#XMLID_2_);}
	.st1{fill:url(#XMLID_3_);}
	.st2{fill:url(#XMLID_4_);}
	.st3{fill:url(#XMLID_5_);}
</style>
<g id="XMLID_965_">
	<g id="XMLID_2341_">
		<linearGradient id="XMLID_2_" gradientUnits="userSpaceOnUse" x1="147.3687" y1="234.4647" x2="446.4573" y2="427.425">
			<stop  offset="0" style="stop-color:#29C1FC"/>
			<stop  offset="0.5022" style="stop-color:#AB00FF"/>
			<stop  offset="0.5082" style="stop-color:#AC03FC"/>
			<stop  offset="0.6406" style="stop-color:#C840B8"/>
			<stop  offset="0.7601" style="stop-color:#DE7082"/>
			<stop  offset="0.8629" style="stop-color:#EE935B"/>
			<stop  offset="0.9448" style="stop-color:#F7A844"/>
			<stop  offset="0.9956" style="stop-color:#FBB03B"/>
		</linearGradient>
		<path id="XMLID_2343_" class="st0" d="M244.8,171.1c0,0-14,14-30.4,30.4L148.3,267c-27,27.5-16.4,55.5,2.4,74.3l54,54
			c4.8,4.8,23.6,24.6,38.6,9.2c8.7-8.7,6.8-22.2,1.9-27.5l-62.2-61.7c-11.1-11.1-5.8-21.2,5.3-31.8l53.1-53.1l33.3,33.3
			c11.6,11.6,26,15.9,38.1,3.9c12.1-12.1,4.8-23.6-6.8-35.2l-36.7-36.7L244.8,171.1z"/>
		<linearGradient id="XMLID_3_" gradientUnits="userSpaceOnUse" x1="193.0212" y1="163.7034" x2="492.1097" y2="356.6637">
			<stop  offset="0" style="stop-color:#29C1FC"/>
			<stop  offset="0.5022" style="stop-color:#AB00FF"/>
			<stop  offset="0.5082" style="stop-color:#AC03FC"/>
			<stop  offset="0.6406" style="stop-color:#C840B8"/>
			<stop  offset="0.7601" style="stop-color:#DE7082"/>
			<stop  offset="0.8629" style="stop-color:#EE935B"/>
			<stop  offset="0.9448" style="stop-color:#F7A844"/>
			<stop  offset="0.9956" style="stop-color:#FBB03B"/>
		</linearGradient>
		<path id="XMLID_2342_" class="st1" d="M247.7,173.5c-8.7-8.7-21.2-13.5-33.3-1.4c-12.1,12.1-5.8,25.6,1.9,33.3"/>
	</g>
	<g id="XMLID_2338_">
		<linearGradient id="XMLID_4_" gradientUnits="userSpaceOnUse" x1="177.4078" y1="187.9041" x2="476.4963" y2="380.8645">
			<stop  offset="0" style="stop-color:#29C1FC"/>
			<stop  offset="0.5022" style="stop-color:#AB00FF"/>
			<stop  offset="0.5082" style="stop-color:#AC03FC"/>
			<stop  offset="0.6406" style="stop-color:#C840B8"/>
			<stop  offset="0.7601" style="stop-color:#DE7082"/>
			<stop  offset="0.8629" style="stop-color:#EE935B"/>
			<stop  offset="0.9448" style="stop-color:#F7A844"/>
			<stop  offset="0.9956" style="stop-color:#FBB03B"/>
		</linearGradient>
		<path id="XMLID_2340_" class="st2" d="M354.8,428.7c0,0,14-14,30.4-30.4l66.1-66.1c27.5-27.5,16.9-55.5-2.4-74.3l-54-53.5
			c-4.8-4.8-23.6-24.6-38.6-9.2c-8.7,8.7-6.8,22.2-1.9,27.5l62.2,61.7c11.1,11.1,5.8,21.2-5.3,31.8l-53.1,53.1L324.9,336
			c-11.6-11.6-26-15.9-38.1-3.9s-4.8,23.6,6.8,35.2l36.7,36.7L354.8,428.7z"/>
		<linearGradient id="XMLID_5_" gradientUnits="userSpaceOnUse" x1="131.6312" y1="258.8578" x2="430.7198" y2="451.8181">
			<stop  offset="0" style="stop-color:#29C1FC"/>
			<stop  offset="0.5022" style="stop-color:#AB00FF"/>
			<stop  offset="0.5082" style="stop-color:#AC03FC"/>
			<stop  offset="0.6406" style="stop-color:#C840B8"/>
			<stop  offset="0.7601" style="stop-color:#DE7082"/>
			<stop  offset="0.8629" style="stop-color:#EE935B"/>
			<stop  offset="0.9448" style="stop-color:#F7A844"/>
			<stop  offset="0.9956" style="stop-color:#FBB03B"/>
		</linearGradient>
		<path id="XMLID_2339_" class="st3" d="M351.9,426.2c8.7,8.7,21.2,14,33.3,1.9s5.8-25.6-1.9-33.3"/>
	</g>
</g>
</svg>
