<?xml version="1.0" encoding="utf-8"?>
<!-- Generator: Adobe Illustrator 19.0.0, SVG Export Plug-In . SVG Version: 6.00 Build 0)  -->
<svg version="1.1" id="Layer_1" xmlns="http://www.w3.org/2000/svg" xmlns:xlink="http://www.w3.org/1999/xlink" x="0px" y="0px"
	 viewBox="0 0 600 600" style="enable-background:new 0 0 600 600;" xml:space="preserve">
<style type="text/css">
	.st0{fill:#FFFFFF;}
</style>
<g id="XMLID_1133_">
	<path id="XMLID_1140_" class="st0" d="M188.8,283l53.1-53.1l33.3,33.3c11.6,11.6,26,15.9,38.1,3.9c12.1-12.1,4.8-23.6-6.8-35.2
		l-36.7-36.7l-21.9-21.9l0.2-0.2c-8.7-8.7-21.2-13.5-33.3-1.4c-10.6,10.6-7,22.3-0.8,30.2l-65.3,64.8c-27,27.5-16.4,55.5,2.4,74.3
		l54,54c4.8,4.8,23.6,24.6,38.6,9.2c8.7-8.7,6.8-22.2,1.9-27.5l-62.2-61.7C172.4,303.8,177.7,293.6,188.8,283z"/>
	<path id="XMLID_1134_" class="st0" d="M449.3,257.5l-54-53.5c-4.8-4.8-23.6-24.6-38.6-9.2c-8.7,8.7-6.8,22.2-1.9,27.5L417,284
		c11.1,11.1,5.8,21.2-5.3,31.8l-53.1,53.1l-33.3-33.3c-11.6-11.6-26-15.9-38.1-3.9c-12.1,12.1-4.8,23.6,6.8,35.2l36.7,36.7
		l21.9,21.9l-0.2,0.2c8.7,8.7,21.2,14,33.3,1.9c10.7-10.7,7-22.6,0.6-30.5l65.5-65.5C479.2,304.2,468.6,276.3,449.3,257.5z"/>
</g>
</svg>
